#!OML:ASF H:\BreakDance\Project 1\Capture day 1\Session 1\Male.ASF
:FULLY-SPECIFIED
:DEGREES
829
root -19.0569 12.3626 6.48373 -246.177 190.682 558.4
lowerback -0.56023 -9.99923 3.26629
upperback 1.57538 -13.8922 10.1559
thorax 3.80242 -7.06312 8.19993
lowerneck -6.76494 5.4388 0.689678
upperneck 186.457 -188.641 -195.598
head 183.79 -183.611 -184.39
rclavicle 6.36111e-015 -8.26944e-014
rhumerus -32.4126 -25.8405 16.1935
rradius 19.4255
rwrist -2.98221
rhand -16.6622 -438.777
rfingers 7.12502
rthumb 9.5613 -251.46
lclavicle 6.36111e-015 -8.26944e-014
lhumerus -22.1399 15.3628 -1.40542
lradius 22.0474
lwrist 22.6792
lhand -40.5141 -13.6856
lfingers 7.12502
lthumb -13.4634 15.8593
rfemur 2.59255 -5.70757 -15.1607
rtibia 78.9709
rfoot -25.8692 -3.14947
rtoes 19.9591
lfemur -53.6211 16.4852 -41.605
ltibia 46.7695
lfoot -20.6045 -4.04262
ltoes -27.2863
830
root -19.1129 12.3509 6.50139 -245.134 191.702 556.839
lowerback -0.861015 -9.09694 3.18896
upperback 2.07584 -12.7382 9.66154
thorax 4.23945 -6.48739 7.7
lowerneck -6.24535 6.24595 1.48535
upperneck 186.201 -189.602 -195.183
head 183.718 -184.169 -184.339
rclavicle 8.26944e-014 -3.02153e-014
rhumerus -32.0782 -27.7901 15.3109
rradius 19.1797
rwrist 0.722958
rhand -16.3369 -435.305
rfingers 7.12502
rthumb 9.87518 -254.947
lclavicle 8.26944e-014 -3.02153e-014
lhumerus -25.2174 17.9666 -1.07232
lradius 21.6783
lwrist 20.9926
lhand -41.4493 -14.2624
lfingers 7.12502
lthumb -14.3646 15.2206
rfemur 2.59735 -7.34718 -13.6414
rtibia 79.224
rfoot -26.278 -2.936
rtoes 20.9509
lfemur -52.828 15.3289 -41.2082
ltibia 47.3792
lfoot -20.8389 -3.24397
ltoes -26.2868
831
root -19.1575 12.3443 6.51649 -244.201 192.762 555.405
lowerback -1.10621 -8.05483 3.28564
upperback 2.56299 -11.3729 9.06112
thorax 4.56731 -5.79189 7.03381
lowerneck -5.87352 6.9643 2.09124
upperneck 185.959 -190.436 -194.457
head 183.641 -184.66 -184.169
rclavicle -2.8625e-014 1.59028e-014
rhumerus -31.5384 -29.6533 14.3841
rradius 19.0365
rwrist 3.88777
rhand -16.4827 -432.865
rfingers 7.12502
rthumb 9.73445 -257.38
lclavicle -2.8625e-014 1.59028e-014
lhumerus -27.6821 20.0121 -0.435063
lradius 21.2551
lwrist 19.4746
lhand -42.2041 -14.7796
lfingers 7.12502
lthumb -15.0918 14.6502
rfemur 2.59791 -8.87856 -12.2218
rtibia 79.3713
rfoot -26.5733 -2.68476
rtoes 21.7819
lfemur -51.9043 14.0518 -40.6212
ltibia 47.9533
lfoot -21.0321 -2.2801
ltoes -25.872
832
root -19.1908 12.3433 6.52938 -243.374 193.827 553.987
lowerback -1.24395 -6.97411 3.52485
upperback 2.98803 -9.93138 8.39441
thorax 4.75956 -5.04686 6.25246
lowerneck -5.44932 7.68329 2.64879
upperneck 185.626 -191.257 -193.655
head 183.52 -185.146 -183.977
rclavicle 8.5875e-014 3.49861e-014
rhumerus -30.5203 -31.0006 13.1243
rradius 19.0519
rwrist 5.64462
rhand -17.0028 -431.204
rfingers 7.12502
rthumb 9.23267 -259.018
lclavicle 8.5875e-014 3.49861e-014
lhumerus -29.7045 21.3901 0.491098
lradius 20.786
lwrist 17.9761
lhand -42.9237 -15.5442
lfingers 7.12502
lthumb -15.7848 13.8322
rfemur 2.71711 -10.3845 -10.9172
rtibia 79.3964
rfoot -26.7671 -2.34931
rtoes 22.4716
lfemur -50.8795 12.6281 -39.8805
ltibia 48.5354
lfoot -21.1694 -1.33612
ltoes -25.532
833
root -19.2123 12.3462 6.54466 -242.599 194.778 552.585
lowerback -1.35397 -5.88343 3.88454
upperback 3.33269 -8.45974 7.63531
thorax 4.86424 -4.27568 5.31938
lowerneck -5.10114 8.43996 3.08012
upperneck 185.309 -192.143 -192.813
head 183.409 -185.651 -183.749
rclavicle 1.27222e-014 -2.54444e-014
rhumerus -28.9704 -31.7121 11.4864
rradius 19.1629
rwrist 5.79652
rhand -17.9435 -429.69
rfingers 7.12502
rthumb 8.32491 -260.494
lclavicle 1.27222e-014 -2.54444e-014
lhumerus -31.3243 22.3218 1.65216
lradius 20.2632
lwrist 16.2453
lhand -43.4872 -16.3061
lfingers 7.12502
lthumb -16.3275 13.0265
rfemur 2.9707 -11.9361 -9.89511
rtibia 79.3092
rfoot -26.8846 -1.85326
rtoes 23.0601
lfemur -49.8399 11.0676 -39.1952
ltibia 49.1577
lfoot -21.2527 -0.577203
ltoes -25.2741
